HIERARCHY
ROOT Hips
{
    OFFSET 0.000000 0.000000 0.000000
    CHANNELS 6 Xposition Yposition Zposition Zrotation Yrotation Xrotation
    JOINT Chest
    {
        OFFSET 0.000000 1.634758 -0.000000
        CHANNELS 3 Zrotation Yrotation Xrotation
        JOINT Chest2
        {
            OFFSET 0.000000 2.197341 0.000000
            CHANNELS 3 Zrotation Yrotation Xrotation
            JOINT Neck
            {
                OFFSET 0.000000 0.961544 0.000000
                CHANNELS 3 Zrotation Yrotation Xrotation
                JOINT Head
                {
                    OFFSET 0.000000 0.632542 -0.032565
                    CHANNELS 3 Zrotation Yrotation Xrotation
                    End Site
                    {
                        OFFSET -0.000001 0.439502 2.922845
                    }
                }
            }
            JOINT LeftCollar
            {
                OFFSET 0.167536 0.778237 -0.168280
                CHANNELS 3 Zrotation Yrotation Xrotation
                JOINT LeftShoulder
                {
                    OFFSET 0.831514 -0.002900 0.006458
                    CHANNELS 3 Zrotation Yrotation Xrotation
                    JOINT LeftElbow
                    {
                        OFFSET 2.272872 -0.026639 0.059314
                        CHANNELS 3 Zrotation Yrotation Xrotation
                        JOINT LeftWrist
                        {
                            OFFSET 2.081982 -0.024402 0.054333
                            CHANNELS 3 Zrotation Yrotation Xrotation
                            JOINT LeftHandThumb1
                            {
                                OFFSET 0.218903 -0.128645 0.283837
                                CHANNELS 3 Zrotation Yrotation Xrotation
                                JOINT LeftHandThumb2
                                {
                                    OFFSET 0.137157 -0.025101 0.077902
                                    CHANNELS 3 Zrotation Yrotation Xrotation
                                    JOINT LeftHandThumb3
                                    {
                                        OFFSET 0.177399 -0.029623 0.034516
                                        CHANNELS 3 Zrotation Yrotation Xrotation
                                        End Site
                                        {
                                            OFFSET 0.259773 -0.011322 -0.065007
                                        }
                                    }
                                }
                            }
                            JOINT LeftHandFore1
                            {
                                OFFSET 0.767340 -0.016076 0.196678
                                CHANNELS 3 Zrotation Yrotation Xrotation
                                JOINT LeftHandFore2
                                {
                                    OFFSET 0.214794 0.027771 0.009357
                                    CHANNELS 3 Zrotation Yrotation Xrotation
                                    JOINT LeftHandFore3
                                    {
                                        OFFSET 0.126907 -0.024768 0.006637
                                        CHANNELS 3 Zrotation Yrotation Xrotation
                                        End Site
                                        {
                                            OFFSET 0.189025 -0.040020 0.005898
                                        }
                                    }
                                }
                            }
                            JOINT LeftHandMiddle1
                            {
                                OFFSET 0.709887 -0.008320 0.018526
                                CHANNELS 3 Zrotation Yrotation Xrotation
                                JOINT LeftHandMiddle2
                                {
                                    OFFSET 0.236261 -0.064713 0.007515
                                    CHANNELS 3 Zrotation Yrotation Xrotation
                                    JOINT LeftHandMiddle3
                                    {
                                        OFFSET 0.103402 -0.103219 0.006090
                                        CHANNELS 3 Zrotation Yrotation Xrotation
                                        End Site
                                        {
                                            OFFSET 0.130230 -0.196352 0.010783
                                        }
                                    }
                                }
                            }
                            JOINT LeftHandRing1
                            {
                                OFFSET 0.743817 -0.005823 -0.153668
                                CHANNELS 3 Zrotation Yrotation Xrotation
                                JOINT LeftHandRing2
                                {
                                    OFFSET 0.338994 -0.098659 -0.009100
                                    CHANNELS 3 Zrotation Yrotation Xrotation
                                    JOINT LeftHandRing3
                                    {
                                        OFFSET -0.019387 -0.134885 0.005976
                                        CHANNELS 3 Zrotation Yrotation Xrotation
                                        End Site
                                        {
                                            OFFSET -0.088531 -0.080977 0.004974
                                        }
                                    }
                                }
                            }
                            JOINT LeftHandLittle1
                            {
                                OFFSET 0.689408 -0.053302 -0.308304
                                CHANNELS 3 Zrotation Yrotation Xrotation
                                JOINT LeftHandLittle2
                                {
                                    OFFSET 0.193251 -0.018757 -0.018874
                                    CHANNELS 3 Zrotation Yrotation Xrotation
                                    JOINT LeftHandLittle3
                                    {
                                        OFFSET 0.000687 -0.119815 -0.011842
                                        CHANNELS 3 Zrotation Yrotation Xrotation
                                        End Site
                                        {
                                            OFFSET -0.185788 0.041814 -0.004795
                                        }
                                    }
                                }
                            }
                        }
                    }
                }
            }
            JOINT RightCollar
            {
                OFFSET -0.167536 0.778237 -0.168280
                CHANNELS 3 Zrotation Yrotation Xrotation
                JOINT RightShoulder
                {
                    OFFSET -0.831514 -0.002900 0.006457
                    CHANNELS 3 Zrotation Yrotation Xrotation
                    JOINT RightElbow
                    {
                        OFFSET -2.272872 -0.026639 0.059313
                        CHANNELS 3 Zrotation Yrotation Xrotation
                        JOINT RightWrist
                        {
                            OFFSET -2.081982 -0.024402 0.054331
                            CHANNELS 3 Zrotation Yrotation Xrotation
                            JOINT RightHandThumb1
                            {
                                OFFSET -0.218911 -0.128571 0.283837
                                CHANNELS 3 Zrotation Yrotation Xrotation
                                JOINT RightHandThumb2
                                {
                                    OFFSET -0.137157 -0.025101 0.077902
                                    CHANNELS 3 Zrotation Yrotation Xrotation
                                    JOINT RightHandThumb3
                                    {
                                        OFFSET -0.147392 -0.083040 0.070137
                                        CHANNELS 3 Zrotation Yrotation Xrotation
                                        End Site
                                        {
                                            OFFSET -0.146240 -0.213510 0.069743
                                        }
                                    }
                                }
                            }
                            JOINT RightHandFore1
                            {
                                OFFSET -0.767344 -0.015991 0.196679
                                CHANNELS 3 Zrotation Yrotation Xrotation
                                JOINT RightHandFore2
                                {
                                    OFFSET -0.214791 0.027820 0.009359
                                    CHANNELS 3 Zrotation Yrotation Xrotation
                                    JOINT RightHandFore3
                                    {
                                        OFFSET -0.127023 -0.024725 0.004006
                                        CHANNELS 3 Zrotation Yrotation Xrotation
                                        End Site
                                        {
                                            OFFSET -0.188856 -0.040025 0.009908
                                        }
                                    }
                                }
                            }
                            JOINT RightHandMiddle1
                            {
                                OFFSET -0.709887 -0.008302 0.018525
                                CHANNELS 3 Zrotation Yrotation Xrotation
                                JOINT RightHandMiddle2
                                {
                                    OFFSET -0.236251 -0.064735 0.007516
                                    CHANNELS 3 Zrotation Yrotation Xrotation
                                    JOINT RightHandMiddle3
                                    {
                                        OFFSET -0.103525 -0.103268 0.001698
                                        CHANNELS 3 Zrotation Yrotation Xrotation
                                        End Site
                                        {
                                            OFFSET -0.130548 -0.196437 0.000100
                                        }
                                    }
                                }
                            }
                            JOINT RightHandRing1
                            {
                                OFFSET -0.743819 -0.005785 -0.153669
                                CHANNELS 3 Zrotation Yrotation Xrotation
                                JOINT RightHandRing2
                                {
                                    OFFSET -0.339001 -0.098635 -0.009099
                                    CHANNELS 3 Zrotation Yrotation Xrotation
                                    JOINT RightHandRing3
                                    {
                                        OFFSET 0.019751 -0.134677 -0.008781
                                        CHANNELS 3 Zrotation Yrotation Xrotation
                                        End Site
                                        {
                                            OFFSET 0.088734 -0.080850 -0.003143
                                        }
                                    }
                                }
                            }
                            JOINT RightHandLittle1
                            {
                                OFFSET -0.689403 -0.053298 -0.308303
                                CHANNELS 3 Zrotation Yrotation Xrotation
                                JOINT RightHandLittle2
                                {
                                    OFFSET -0.193254 -0.018752 -0.018875
                                    CHANNELS 3 Zrotation Yrotation Xrotation
                                    JOINT RightHandLittle3
                                    {
                                        OFFSET -0.002808 -0.119950 0.009980
                                        CHANNELS 3 Zrotation Yrotation Xrotation
                                        End Site
                                        {
                                            OFFSET 0.181339 0.041558 0.040958
                                        }
                                    }
                                }
                            }
                        }
                    }
                }
            }
        }
    }
    JOINT LeftHip
    {
        OFFSET 0.685143 0.673822 -0.044491
        CHANNELS 3 Zrotation Yrotation Xrotation
        JOINT LeftKnee
        {
            OFFSET 0.085364 -3.750208 0.017676
            CHANNELS 3 Zrotation Yrotation Xrotation
            JOINT LeftAnkle
            {
                OFFSET 0.094583 -4.155206 0.019585
                CHANNELS 3 Zrotation Yrotation Xrotation
                JOINT LeftToe
                {
                    OFFSET -0.000000 -0.395925 0.621478
                    CHANNELS 3 Zrotation Yrotation Xrotation
                    End Site
                    {
                        OFFSET -0.000000 -0.077878 0.321152
                    }
                }
            }
        }
    }
    JOINT RightHip
    {
        OFFSET -0.685143 0.673822 -0.044492
        CHANNELS 3 Zrotation Yrotation Xrotation
        JOINT RightKnee
        {
            OFFSET -0.085364 -3.750208 0.017677
            CHANNELS 3 Zrotation Yrotation Xrotation
            JOINT RightAnkle
            {
                OFFSET -0.094583 -4.155206 0.019585
                CHANNELS 3 Zrotation Yrotation Xrotation
                JOINT RightToe
                {
                    OFFSET -0.000000 -0.395925 0.621478
                    CHANNELS 3 Zrotation Yrotation Xrotation
                    End Site
                    {
                        OFFSET -0.000000 -0.077878 0.321152
                    }
                }
            }
        }
    }
}
MOTION
Frames: 4
Frame Time: 0.033333
0.423528 8.623470 -0.503455 -170.832672 -0.000011 180.000000 16.615765 -0.000003 -3.571794 -0.000004 0.000002 -3.645259 0.000003 -0.000004 7.629878 0.000009 -0.000009 16.709391 -12.774315 2.487828 0.008694 -50.173302 17.606094 -1.067074 0.041944 -20.042547 -0.244711 -13.997915 0.184498 5.475775 0.000000 0.000002 0.000001 0.000002 0.000002 -0.000005 0.000000 -0.000000 0.000011 0.000000 0.000002 -0.000000 -0.000001 0.000002 0.000000 0.000001 -0.000001 0.000000 0.000000 0.000002 0.000000 0.000002 -0.000000 0.000000 -0.000001 -0.000000 0.000000 -0.000001 0.000001 0.000000 0.000002 -0.000002 -0.000001 0.000002 0.000001 0.000001 0.000002 0.000001 -0.000000 -0.000003 -0.000002 0.000000 0.000000 0.000001 0.000000 12.842503 -2.669208 0.009311 51.810379 -22.074814 -1.259919 -0.086319 27.891827 -0.354903 9.991667 0.209976 5.256089 -0.000005 0.000003 0.000002 0.000004 -0.000001 0.000003 0.000006 0.000002 -0.000001 -0.000003 -0.000000 0.000000 0.000003 0.000002 -0.000000 0.000002 0.000002 -0.000001 -0.000002 0.000001 0.000000 -0.000000 -0.000000 -0.000000 0.000001 0.000001 0.000001 -0.000002 -0.000001 0.000000 -0.000001 0.000001 -0.000000 -0.000007 -0.000000 -0.000000 -0.000002 0.000001 0.000000 0.000001 -0.000000 -0.000000 -0.000001 0.000003 -0.000000 10.820938 -0.332050 -4.308887 0.043804 0.335142 14.890661 1.054382 1.307242 -16.619200 -0.000000 -0.000001 -0.000001 19.485044 0.210130 -7.537129 -0.059289 -0.388782 17.343796 -5.937952 -7.324353 -0.557560 0.001312 0.005448 -0.092383
0.447099 8.624531 -0.528010 -170.602448 -0.000121 180.000000 16.687189 -0.043375 -3.573651 -0.139293 0.017096 -3.647234 -2.053643 -0.707701 2.565140 0.066291 -1.287343 7.051160 -10.538935 -0.752453 0.002212 -39.347260 11.783813 2.951829 0.107804 -30.767635 -0.399142 -16.717667 2.606238 8.278908 0.000004 0.000005 -0.000010 -0.729777 1.428489 -0.127012 0.000003 -0.000000 0.000006 -0.106055 -0.003097 -0.000654 8.020504 0.185701 -0.067519 0.000004 0.000002 0.000000 -3.711431 -0.110473 0.079917 9.651157 0.280297 -0.066781 1.781461 0.056786 -0.022051 0.296191 0.007218 -0.021670 24.788343 -0.013706 0.894102 12.611012 0.504701 0.383547 7.344386 0.333556 -0.960288 22.472355 1.415356 0.731569 31.150721 -2.376230 0.757383 9.345071 0.217355 -0.005063 35.041958 -15.522049 1.017563 -0.147406 35.173222 -0.472364 25.028515 -2.700114 7.132916 -0.000000 0.000002 -0.000010 0.665068 -0.678670 1.293862 0.000004 0.000002 -0.000001 0.106051 0.003103 -0.000659 -7.997043 0.219248 -0.623103 0.000001 -0.000002 0.000002 3.711433 0.110523 0.079926 -9.643288 0.077681 -0.488678 -1.780393 0.026464 -0.082936 -0.296192 -0.007209 -0.021671 -24.788179 0.887088 0.058742 -12.590344 0.910877 0.150008 -7.344387 -0.333575 -0.960311 -22.041641 2.517053 3.439903 -30.906775 -0.415223 4.866628 11.230986 -0.387521 -6.738557 0.073047 0.430315 19.265963 0.906089 1.191814 -13.867344 0.000000 -0.000001 0.000002 19.664738 0.522363 -21.854872 -0.152244 -0.611513 27.962654 -6.932609 -7.011669 2.980883 0.000000 0.000000 -0.000003
0.512461 8.627398 -0.589397 -170.006134 -0.000437 180.000000 16.660208 -0.010289 -3.578742 -0.033033 0.004053 -3.652328 -6.865446 -1.213999 -1.820921 0.117975 -2.290329 -1.224931 -6.894494 -5.448627 -0.018295 -25.055136 -1.713108 7.448412 0.192773 -39.262798 -0.547773 -22.618343 4.880362 10.650619 0.000000 0.000003 -0.000012 -2.628081 5.333056 -0.540985 -0.000003 0.000002 0.000005 -0.339372 -0.009924 -0.002095 22.908888 0.658368 -0.184818 0.000005 -0.000000 0.000000 -11.877591 -0.324670 0.255833 27.571016 0.911843 -0.124114 5.089791 0.165463 -0.058285 0.846264 0.021679 -0.061639 70.845840 -0.373930 1.901136 36.039478 1.357140 1.409088 20.975386 1.102493 -2.722159 64.162621 2.215210 0.919980 89.170036 -3.489269 -0.570218 5.536962 4.770370 -0.017299 21.233313 -2.036598 1.838752 -0.227445 41.905167 -0.601305 37.020916 -7.961740 8.867729 0.000014 0.000002 -0.000012 2.482335 -2.536095 4.732871 0.000003 0.000005 0.000000 0.339386 0.009904 -0.002100 -22.854639 0.499215 -1.772355 -0.000002 0.000005 -0.000003 11.877595 0.324794 0.255859 -27.556084 0.099881 -1.340836 -5.086951 0.070242 -0.238952 -0.846254 -0.021686 -0.061636 -70.835220 2.870731 -0.484786 -35.973972 2.781912 -0.169348 -20.975363 -1.102568 -2.722209 -62.394516 8.972315 8.750810 -87.603645 8.008420 11.051157 12.336991 -0.493706 -11.408120 0.146342 0.600210 27.402184 0.562800 0.850824 -9.200687 0.035491 0.197039 -3.419760 20.127739 0.831188 -37.866695 -0.382314 -0.922503 45.022919 -8.175407 -7.125473 1.437229 0.000000 -0.000001 0.000005
0.611580 8.631632 -0.669200 -169.185364 -0.000938 180.000000 16.512789 0.020876 -3.586100 0.067017 -0.008214 -3.659830 -12.487041 -2.278954 -5.424707 0.226581 -4.392486 -7.928797 -4.913704 -8.610838 -0.031385 -17.436596 -14.275905 11.252922 0.213069 -40.852318 -0.579466 -28.060719 2.970260 6.480335 -0.000002 0.000005 -0.000009 -5.228009 11.147888 -1.313869 0.000000 -0.000000 0.000002 -0.572699 -0.016705 -0.003555 30.921762 0.979782 -0.231396 0.000003 0.000003 -0.000001 -20.044821 -0.491955 0.430472 37.219566 1.289620 -0.092805 6.871491 0.219598 -0.071123 1.142478 0.032394 -0.082334 95.656654 -0.534624 2.049013 48.661514 1.725071 2.110572 28.308781 1.796313 -3.633048 86.496040 2.096629 -0.010291 120.328728 -1.783917 -1.250580 2.346201 7.192682 -0.024664 9.289323 5.379570 2.165479 -0.322104 47.694107 -0.735988 49.487602 -11.258821 8.486724 -0.000002 0.000012 -0.000022 5.201785 -5.317442 9.596617 0.000002 0.000003 0.000000 0.572697 0.016690 -0.003559 -30.857370 0.583293 -2.374727 0.000003 -0.000003 -0.000003 20.044821 0.492140 0.430539 -37.202251 0.041119 -1.770695 -6.867402 0.084855 -0.328004 -1.142481 -0.032402 -0.082336 -95.658165 3.906166 -1.172337 -48.580532 3.792281 -0.678058 -28.308764 -1.796445 -3.633119 -83.975060 12.991245 10.679159 -118.110580 15.347806 10.081860 13.954886 -0.603725 -16.295650 0.241565 0.756082 35.434170 0.123879 0.301225 -8.176062 0.031659 0.161483 -2.538113 20.645544 1.067635 -53.356560 -0.680997 -1.145583 61.460426 -9.897309 -7.245250 -0.260738 -0.000000 -0.000002 0.000015
